PathFileType	4	(X/Y/Z)	/Users/niels/Desktop/University/Third Semester/Perception and Action/Exam/Gymnastics Motion Tracking/Code for Gym Tracking/Analyzed Data/Webcam_Backflip/id19_4_trajectory_Sports2D/id19_4_trajectory_Sports2D_px_person00.trc
DataRate	CameraRate	NumFrames	NumMarkers	Units	OrigDataRate	OrigDataStartFrame	OrigNumFrames
29.714285714285715	29.714285714285715	8	22	m	29.714285714285715	52	105
Frame#	Time	Hip			RHip			RKnee			RAnkle			RBigToe			RSmallToe			RHeel			LHip			LKnee			LAnkle			LBigToe			LSmallToe			LHeel			Neck			Head			Nose			RShoulder			RElbow			RWrist			LShoulder			LElbow			LWrist		
		X1	Y1	Z1	X2	Y2	Z2	X3	Y3	Z3	X4	Y4	Z4	X5	Y5	Z5	X6	Y6	Z6	X7	Y7	Z7	X8	Y8	Z8	X9	Y9	Z9	X10	Y10	Z10	X11	Y11	Z11	X12	Y12	Z12	X13	Y13	Z13	X14	Y14	Z14	X15	Y15	Z15	X16	Y16	Z16	X17	Y17	Z17	X18	Y18	Z18	X19	Y19	Z19	X20	Y20	Z20	X21	Y21	Z21	X22	Y22	Z22
52	1.75	0.956681857547687	-0.3956650080784842	0.0	0.9484390972023305	-0.3915360900499887	0.0	0.8393348511994843	-0.3633547908226229	0.0	0.7470165650282645	-0.3007476692679803	0.0	0.7069478181630031	-0.323374752787634	0.0	0.7079750884845166	-0.31797415958839503	0.0	0.736032893388019	-0.292618380955786	0.0	0.9597490994777557	-0.40313637895492765	0.0	0.8569248583632909	-0.3682121410472074	0.0	0.7862316642111329	-0.3062634133123843	0.0	0.7130146355942018	-0.32116382226934304	0.0	0.7198758617702095	-0.3051408593278511	0.0	0.7737787282796386	-0.28336895101451	0.0	0.8998947719594876	-0.5422762910280587	0.0	0.8866463870538704	-0.6127372176694984	0.0	0.8671473328759914	-0.5799634115473885	0.0	0.8918475225962679	-0.507711082247103	0.0	0.8920672803221179	-0.4201141574626529	0.0	0.8647364242910611	-0.3759795349057592	0.0	0.9248392737056896	-0.5295737162423989	0.0	0.9273026903963745	-0.46742671159501387	0.0	0.9028657935278754	-0.40659382790311077	0.0
53	1.783653846153846	0.947819563983685	-0.3944433873445064	0.0	0.9376885210890447	-0.3940784713906976	0.0	0.8198219073783648	-0.3961058862251171	0.0	0.7117309560345351	-0.35990829525690915	0.0	0.6789207521515396	-0.39995854063154107	0.0	0.6763163759254861	-0.3927760436191071	0.0	0.6968725548184738	-0.3524184743006534	0.0	0.9547424287864493	-0.40119777692203534	0.0	0.8477492389110378	-0.3967498184876542	0.0	0.7697997349820701	-0.3466988881428171	0.0	0.68008869459515	-0.39701693543230154	0.0	0.6995422497007688	-0.3692592632026276	0.0	0.7530913756087203	-0.326818973943894	0.0	0.929386797153536	-0.5533804500948287	0.0	0.9356091061784715	-0.6293858782109111	0.0	0.9074569021387728	-0.6028975908093094	0.0	0.9124043659798288	-0.519769634408314	0.0	0.8839230864025526	-0.4355712994311261	0.0	0.8471246112518089	-0.40786170083397144	0.0	0.9530951406095569	-0.5364109014002262	0.0	0.9396139488013727	-0.4655079354546879	0.0	0.9106388953664722	-0.44377167841305865	0.0
54	1.8173076923076923	0.9364405548411925	-0.40211871819541134	0.0	0.9244110521091201	-0.40527539582253636	0.0	0.8052826199633735	-0.4354919537990553	0.0	0.6897851329643113	-0.42808525676982395	0.0	0.667782934565607	-0.48313762907915264	0.0	0.6610550701739798	-0.47509407064747633	0.0	0.6714348954101327	-0.42180352738288346	0.0	0.9480001148718834	-0.4068316612952362	0.0	0.8445798007265962	-0.433330496734842	0.0	0.7687428577819039	-0.3941832511380546	0.0	0.6652430987899601	-0.4765932022831765	0.0	0.6994245722825312	-0.43885689887329077	0.0	0.7481181440317046	-0.3776456618791148	0.0	0.9571496240710605	-0.559502706903572	0.0	0.9821524538651158	-0.6355528116056799	0.0	0.9474100003833678	-0.6160172717571746	0.0	0.9318440272570648	-0.5290865276951437	0.0	0.8768993913770401	-0.4589453447626055	0.0	0.8336652892474494	-0.4514369090871312	0.0	0.978471587792101	-0.5400489451913748	0.0	0.9545133915287785	-0.46911525546020805	0.0	0.9237616512511082	-0.4895627973155363	0.0
55	1.8509615384615383	0.9225286921682512	-0.4192106365944808	0.0	0.908778823016816	-0.42446724347145903	0.0	0.7955705136569922	-0.48064305943393776	0.0	0.6812239087637164	-0.5029380847440399	0.0	0.6721331177082203	-0.5688521788924085	0.0	0.6612649291007002	-0.5607542418448748	0.0	0.6602389398691618	-0.4985481476339604	0.0	0.9389580222943429	-0.4211212340244332	0.0	0.843680684534886	-0.4791192050669706	0.0	0.7767699573384472	-0.45299010372913523	0.0	0.6699782741386443	-0.554653527575997	0.0	0.7158800102160556	-0.5139270447544427	0.0	0.7520287854490771	-0.44090250480047366	0.0	0.9801041306268237	-0.5616027891735363	0.0	1.0225375324487844	-0.6325094777538474	0.0	0.9825617347017559	-0.6204133345229206	0.0	0.9480759396542597	-0.5363800898309777	0.0	0.8725884274908932	-0.4896991369658896	0.0	0.8258787179504474	-0.5050999702180352	0.0	0.9981114281589165	-0.5415004469256893	0.0	0.9683797588946172	-0.48338748413042687	0.0	0.9368175070008766	-0.5394530232966456	0.0
56	1.8846153846153846	0.9060044795788308	-0.4452767839790063	0.0	0.8910866972450694	-0.4507414226436992	0.0	0.7907913346017806	-0.5307734024840138	0.0	0.6853334821729421	-0.5821183924044817	0.0	0.6893137382736412	-0.6535437125273096	0.0	0.6748992526803129	-0.646033473347296	0.0	0.6629533066189688	-0.5803616797991948	0.0	0.9265605436244404	-0.4443493456020828	0.0	0.8414727398225292	-0.5329691080076479	0.0	0.7845536860316631	-0.5265466927160714	0.0	0.6941966513270639	-0.625777063650383	0.0	0.739946761791846	-0.5940820633906926	0.0	0.7555142503534706	-0.5203626341956937	0.0	0.9955426728074889	-0.5617574002650574	0.0	1.053869102570083	-0.6230721675048142	0.0	1.0093268377879743	-0.6189095435295299	0.0	0.9588936691468314	-0.5432763682843135	0.0	0.8721180735083338	-0.5262131072546863	0.0	0.8261894888735881	-0.5651142191123569	0.0	1.0096656254593217	-0.5424406067131137	0.0	0.977021788951121	-0.5102391357222854	0.0	0.9469984080627155	-0.5891320676399088	0.0
57	1.9182692307692306	0.8873688410176371	-0.4796196829212093	0.0	0.8721930413002463	-0.48405356151594264	0.0	0.7907962737863548	-0.5851922773261189	0.0	0.7000469330742284	-0.6632774480407251	0.0	0.7155838919186516	-0.7344897729957811	0.0	0.6987328357457608	-0.7281827200737668	0.0	0.6776824969905004	-0.6649200733431814	0.0	0.9103704773179373	-0.4762071151512543	0.0	0.8366585503878367	-0.5905795832159575	0.0	0.786455658688881	-0.6128473863849666	0.0	0.7362875158080944	-0.685057182052233	0.0	0.7612847632032868	-0.6755811641377032	0.0	0.7540624326678507	-0.6132926949982136	0.0	1.0017954680858874	-0.5626567582501195	0.0	1.074135685183484	-0.6108207904924348	0.0	1.0256885719854323	-0.6151482112737899	0.0	0.9626695094766785	-0.5519308519567984	0.0	0.8764179160984564	-0.5661338707684094	0.0	0.8377884548331029	-0.6256694885519006	0.0	1.0122102978171663	-0.5448647378589778	0.0	0.9798486619706591	-0.5467669896202212	0.0	0.9574752534151024	-0.6353128308096544	0.0
58	1.9519230769230769	0.8678459578943651	-0.5217790340068462	0.0	0.8535130379090229	-0.5251662461447316	0.0	0.7946410025110261	-0.6435080910220148	0.0	0.7215469074359396	-0.744151600334151	0.0	0.7462705700962584	-0.810067426346363	0.0	0.7283625209907884	-0.8056739168055845	0.0	0.7004768961871201	-0.7496566459929879	0.0	0.8910735650194377	-0.5163216960104925	0.0	0.8301549134585237	-0.6482413007246814	0.0	0.7836448775700976	-0.7044094783008431	0.0	0.7923644035940179	-0.7293997814903816	0.0	0.7745735210553741	-0.7527623932918832	0.0	0.7504023119561977	-0.7106556567173362	0.0	0.9986947197444683	-0.5669481288914763	0.0	1.0824830513809975	-0.5995768496048046	0.0	1.0313939222373896	-0.6126323056002667	0.0	0.9590972590728987	-0.564401377814776	0.0	0.886056694827834	-0.6062525675627594	0.0	0.8627066702658124	-0.6794508599268289	0.0	1.0062388567116878	-0.5505169434714309	0.0	0.9800315121704054	-0.5858697948190335	0.0	0.9735060085372967	-0.6735332731523557	0.0
59	1.985576923076923	0.8490471292747103	-0.571290361110306	0.0	0.8365683914456462	-0.5742726532347417	0.0	0.8007434681534882	-0.7049927469561977	0.0	0.7447763144360825	-0.8223482076346985	0.0	0.7763419872889871	-0.8795127745909181	0.0	0.7586907929617034	-0.8777969600675799	0.0	0.7257758091041885	-0.8314506911426942	0.0	0.870195758251237	-0.564603976220803	0.0	0.8240958047393404	-0.705556631094154	0.0	0.7806136202817952	-0.79303444498408	0.0	0.854986552996536	-0.7598902731521404	0.0	0.7809881843244502	-0.8214359849751663	0.0	0.7494816645287105	-0.8026896013308219	0.0	0.9875276602608628	-0.5765308937978827	0.0	1.0793984597259765	-0.5926894647870494	0.0	1.0276810388678668	-0.613954810108453	0.0	0.9494699057021658	-0.581786831055377	0.0	0.9005319719267484	-0.6427077120241744	0.0	0.8993635331897802	-0.7192626964453436	0.0	0.9930733286092853	-0.5605634254911195	0.0	0.9807404226999001	-0.6200888290147883	0.0	0.9961774363316271	-0.6985685080317698	0.0
